<?xml version="1.0" encoding="utf-8"?>
<!-- Generator: Adobe Illustrator 26.0.0, SVG Export Plug-In . SVG Version: 6.00 Build 0)  -->
<svg version="1.1" id="Capa_1" xmlns="http://www.w3.org/2000/svg" xmlns:xlink="http://www.w3.org/1999/xlink" x="0px" y="0px"
	 viewBox="0 0 800 800" style="enable-background:new 0 0 800 800;" xml:space="preserve">
<style type="text/css">
	.st0{fill:#EBF4E6;}
	.st1{fill:#8CC554;}
	.st2{fill:#5DC4CE;}
</style>
<g>
	<path class="st0" d="M557.7,32.3c-14.6,78-48.3,151-96.9,207.7c-39.1,45.8-80.7,88.6-123.4,129.7c-22.9,22-46.1,44-69.4,65.5
		c-17.8,16.2-35.5,36.2-55.7,48.5c11.5-111.1,48.3-217.2,113.9-300c32.4-40.6,72.4-72.1,102.9-114.8c14.2-20.2,27-41.4,38.3-63.2
		c-1.6-0.3-3.2-0.5-4.8-0.8c-13.8,23.3-29.2,45.2-46,64.8c-33,38.5-73.7,66.6-107.4,104c-68.5,76.5-112.6,180.8-127.4,289.6
		C142.5,334.3,155.3,187.1,227.2,77c14.4-22.2,32.7-41.2,52.7-58.6C117.7,69.4,0,220.9,0,400c0,202.4,150.3,369.7,345.4,396.3
		l-0.1-132.5c-4.4-1.7-7.6-5.5-7.6-10.1c0-1.6,0.4-3.2,1-4.6c-0.3-0.3-0.7-0.5-1-0.6c-2.7-2-5.1-4.2-7.4-6.7
		c-28.2-28.8-61.4-59.1,0.8-70.6c33.2-6.1,32.6-42.7,47.1-72.1c20.4-41,51.1-63.7,92.3-87.2l0.2-21.8c8.6-6.7,20.4-17.9,35.3-21.5
		c-2.3-29.2,8.2-15.6,15.5-29.4c0-27.8-13.5-15.6-14.3-39.3c-1.3-40.1,59.5-40.1,58,0c-0.6,23.8-14.1,11.5-14.1,39.3
		c7.3,13.9,17.7,0.2,15.6,29.4c14.7,3.6,26.7,14.7,35.3,21.5v21.8c41.4,23.6,72.1,46.3,92.5,87.3c14.5,29.4,13.7,66,46.9,72.1
		c3.6,0.7,7,1.4,10,2.2c2.9,0.8,5.6,1.6,7.9,2.5c20.1-41,33.4-86,38.4-133.5c1.5-13.9,2.2-28,2.2-42.3
		C800,235.1,700.2,93.5,557.7,32.3z"/>
	<path class="st1" d="M429.2,68.9c-30.5,42.7-70.5,74.2-102.9,114.8c-65.6,82.8-102.5,188.9-113.9,300c20.2-12.3,38-32.2,55.7-48.5
		c23.4-21.5,46.5-43.5,69.4-65.5c42.7-41.1,84.2-83.9,123.4-129.7c48.6-56.7,82.3-129.7,96.9-207.7C529.2,20.1,498.9,11,467.4,5.7
		C456.1,27.6,443.4,48.7,429.2,68.9z"/>
	<path class="st1" d="M227.2,77c-71.9,110.1-84.7,257.3-45.4,386.2c14.8-108.8,58.9-213,127.4-289.6c33.7-37.4,74.4-65.5,107.4-104
		c16.8-19.6,32.3-41.5,46-64.8C442.2,1.7,421.3,0,400,0c-41.9,0-82.2,6.4-120.1,18.4C259.9,35.8,241.6,54.8,227.2,77z"/>
	<path class="st2" d="M735.9,617.3c8.6-13.3,16.5-27.1,23.5-41.5c-2.4-0.9-5-1.7-7.9-2.5L735.9,617.3z"/>
	<path class="st2" d="M741.5,571.1c-33.2-6.1-32.4-42.7-46.9-72.1c-20.4-41-51.1-63.7-92.5-87.3v-21.8c-8.6-6.7-20.6-17.9-35.3-21.5
		c2.1-29.2-8.2-15.6-15.6-29.4c0-27.8,13.5-15.6,14.1-39.3c1.5-40.1-59.3-40.1-58,0c0.8,23.8,14.3,11.5,14.3,39.3
		c-7.4,13.9-17.9,0.2-15.5,29.4c-14.9,3.6-26.7,14.7-35.3,21.5l-0.2,21.8c-41.2,23.6-71.9,46.2-92.3,87.2
		c-14.5,29.4-13.9,66-47.1,72.1c-62.2,11.5-29,41.8-0.8,70.6c2.2,2.5,4.7,4.7,7.4,6.7c0.4,0.2,0.7,0.4,1,0.6c-0.7,1.4-1,3-1,4.6
		c0,4.6,3.1,8.4,7.6,10.1l0.1,132.5c17.9,2.4,36.1,3.7,54.6,3.7c140.8,0,264.6-72.8,335.9-182.7l15.6-44
		C748.4,572.5,745.1,571.8,741.5,571.1z"/>
</g>
</svg>
