<svg id="Capa_1" data-name="Capa 1" xmlns="http://www.w3.org/2000/svg" viewBox="0 0 67.7 67.7"><defs><style>.cls-1{fill:#549911;}</style></defs><path class="cls-1" d="M45,39.56a2,2,0,1,0,0,4h0a2.08,2.08,0,0,0,2-1.91h0A2,2,0,0,0,45,39.56Z"/><path class="cls-1" d="M50.94,29H48.81L47.64,23a.68.68,0,0,0-.64-.53H41.68A.68.68,0,0,0,41,23l-4.47,18.1H27.1a6,6,0,1,0,0,1.27h12A5.9,5.9,0,0,0,42.43,47a6,6,0,0,0,8-2.66c.21-.43.32-.86.53-1.39a1.3,1.3,0,0,0,.11-.64h.63a1.41,1.41,0,0,0,.64-.1A2.11,2.11,0,0,0,53.6,40.3V31.47A2.46,2.46,0,0,0,50.94,29ZM21.14,44.88a3.3,3.3,0,0,1,0-6.6h0a3.3,3.3,0,0,1,0,6.6ZM42.32,24c0-.21.21-.32.42-.32h3.84l.53,3.94H42.32c-.11,0-.21-.11-.32-.11a.38.38,0,0,1-.11-.32Zm6,17.56A3.36,3.36,0,1,1,45,38.17h0a3.42,3.42,0,0,1,3.3,3.41Zm4-3.73-4.25-3.61H39.55L39.87,33h8.41a.66.66,0,0,1,.42.1l3.52,3.09v1.7Z"/><path class="cls-1" d="M21.14,39.56a2,2,0,0,0,0,4h0a2.07,2.07,0,0,0,2-1.91h0A2.11,2.11,0,0,0,21.14,39.56Z"/><path class="cls-1" d="M29.12,39.56h6a.69.69,0,0,0,.64-.54l4.47-18.09h6.17a.62.62,0,0,0,.53-.74c-.1-.32-.42-.64-.74-.54h-6.6a.69.69,0,0,0-.64.54L38.17,23H15.82a.69.69,0,0,0-.64.54L13.9,28.81c-.1.32,0,.53.32.74l14.48,9.9A.61.61,0,0,0,29.12,39.56Zm2-3.52,2.66-9.89V26a.74.74,0,0,1,.86-.43.73.73,0,0,1,.42.86l-2.66,9.89a.69.69,0,0,1-.64.54h-.21A.69.69,0,0,1,31.14,36Zm-12-9.47-.53,2a.69.69,0,0,1-.64.54h-.22a.67.67,0,0,1-.42-.85l.53-2h0a.67.67,0,0,1,.85-.42h0C19,25.83,19.22,26.15,19.12,26.57Zm4,0L22,30.83a.68.68,0,0,1-.64.53h-.21a.67.67,0,0,1-.43-.85l1.17-4.26h0a.68.68,0,0,1,.86-.42h0C23.06,25.83,23.27,26.15,23.16,26.57Zm3.94,0L25.4,33a.68.68,0,0,1-.64.53h-.21a.67.67,0,0,1-.43-.85l1.7-6.49h0a.67.67,0,0,1,.85-.43h0A.67.67,0,0,1,27.1,26.57Zm1.06,9H28a.85.85,0,0,1-.53-.85l2.34-8.62h0a.67.67,0,0,1,.85-.43h0a.68.68,0,0,1,.43.85L28.7,35.19C28.7,35.41,28.38,35.62,28.16,35.62Z"/></svg>